<svg data-v-0dd9719b="" version="1.0" xmlns="http://www.w3.org/2000/svg" xmlns:xlink="http://www.w3.org/1999/xlink" width="100%" height="100%" viewBox="0 0 340.000000 250.000000" preserveAspectRatio="xMidYMid meet" color-interpolation-filters="sRGB" style="margin: auto;"> <rect data-v-0dd9719b="" x="0" y="0" width="100%" height="100%" fill="#fff" fill-opacity="1" class="background"></rect> <rect data-v-0dd9719b="" x="0" y="0" width="100%" height="100%" fill="url(#watermark)" fill-opacity="1" class="watermarklayer"></rect> <g data-v-0dd9719b="" fill="#333" class="icon-text-wrapper icon-svg-group iconsvg" transform="translate(47.67500305175781,95)"><g class="iconsvg-imagesvg" transform="translate(0,0)"><g><rect fill="#333" fill-opacity="0" stroke-width="2" x="0" y="0" width="60" height="60" class="image-rect"></rect> <svg x="0" y="0" width="60" height="60" filtersec="colorsb1576406184" class="image-svg-svg primary" style="overflow: visible;"><svg xmlns="http://www.w3.org/2000/svg" viewBox="0 0 100 100"><path d="M27.81 38.23c0-2.3-2.18-4.15-4.88-4.15s-4.88 1.85-4.88 4.15V90.4c0 2.29 2.18 4.15 4.88 4.15s4.88-1.86 4.88-4.15V38.23zM27.81 9.6c0-2.29-2.18-4.15-4.88-4.15s-4.88 1.86-4.88 4.15V23c0 2.3 2.18 4.15 4.88 4.15s4.88-1.85 4.88-4.15z" fill="#f47725"></path><path d="M45.86 80.35c0-2.29-2.19-4.15-4.88-4.15s-4.89 1.86-4.89 4.15v15.5c0 2.29 2.19 4.15 4.89 4.15s4.88-1.86 4.88-4.15zM45.86 4.15C45.86 1.86 43.67 0 41 0s-4.89 1.86-4.89 4.15v61c0 2.29 2.19 4.15 4.89 4.15s4.88-1.86 4.88-4.15z" fill="#ffc313"></path><path d="M63.91 51.71c0-2.29-2.19-4.14-4.89-4.14s-4.88 1.85-4.88 4.14v44.14c0 2.29 2.19 4.15 4.88 4.15s4.89-1.86 4.89-4.15zM63.91 4.15C63.91 1.86 61.72 0 59 0s-4.88 1.86-4.88 4.15v32.31c0 2.3 2.19 4.15 4.88 4.15s4.89-1.85 4.89-4.15z" fill="#4dc2d4"></path><path d="M82 78.69c0-2.29-2.18-4.15-4.88-4.15s-4.88 1.86-4.88 4.15V90.4c0 2.29 2.18 4.15 4.88 4.15S82 92.69 82 90.4zM82 9.6c0-2.29-2.18-4.15-4.88-4.15s-4.93 1.86-4.93 4.15v53.84c0 2.29 2.18 4.15 4.88 4.15S82 65.73 82 63.44z" fill="#23b4a7"></path><path d="M100 52.34c0-2.29-2.19-4.15-4.88-4.15s-4.88 1.86-4.88 4.15v23.93c0 2.3 2.18 4.16 4.88 4.16s4.88-1.86 4.88-4.16zM100 23.73c0-2.3-2.19-4.15-4.88-4.15s-4.88 1.85-4.88 4.15v13.36c0 2.29 2.18 4.15 4.88 4.15s4.88-1.86 4.88-4.15z" fill="#a5c73c"></path><path d="M9.77 61.21c0-2.29-2.19-4.15-4.89-4.15S0 58.92 0 61.21v15.06c0 2.3 2.19 4.16 4.88 4.16s4.89-1.86 4.89-4.16zM9.77 23.72c0-2.29-2.19-4.15-4.89-4.15S0 21.43 0 23.72V46c0 2.29 2.19 4.15 4.88 4.15s4.89-1.9 4.89-4.15z" fill="#e01c4e"></path></svg></svg> <!----></g></g> <g transform="translate(67,17.939998626708984)"><g data-gra="path-name" fill-rule="" class="tp-name iconsvg-namesvg"><g transform="scale(1)"><g><path d="M8.77 0L13.66 0 22.97-23.78 17.73-23.78 11.48-5.57 11.18-5.57 4.89-23.78 0.07-23.78ZM34.04-23.78L28.23-23.78 19.71 0 24.67 0 26.16-4.42 36.49-4.42 38.09 0 43.39 0ZM27.35-7.98L30.99-18.86 31.33-18.86 35.23-7.98ZM45.87 0L50.32 0 50.32-16.17 50.49-16.17 61.94 0 66.42 0 66.42-23.78 62.04-23.78 62.04-7.41 61.87-7.41 50.39-23.78 45.87-23.78ZM83.24-23.78L77.43-23.78 68.9 0 73.86 0 75.36-4.42 85.69-4.42 87.28 0 92.58 0ZM76.55-7.98L80.18-18.86 80.52-18.86 84.43-7.98ZM94.82-23.78L94.82 0 104.64 0C111.88 0 115.04-5.16 115.04-11.89 115.04-18.65 111.88-23.78 104.64-23.78ZM103.15-19.33C107.19-19.33 110.22-17.77 110.22-11.89 110.22-5.98 107.23-4.48 103.18-4.48L99.45-4.48 99.45-19.33ZM118.71 0L123.3 0 123.3-23.78 118.71-23.78ZM143.1-9.28C143.1-5.88 140.86-4.14 137.6-4.14 134.24-4.14 132.33-5.88 132.33-9.28L132.33-23.78 127.68-23.78 127.68-8.6C127.68-2.51 132.3 0.34 137.63 0.34 143.14 0.34 147.62-2.51 147.62-8.6L147.62-23.78 143.1-23.78ZM151.97 0L156.42 0 156.42-15.22 156.59-15.22 162.98-3.09 166.14-3.09 172.97-15.22 173.14-15.22 173.14 0 177.72 0 177.72-23.78 173.07-23.78 164.85-8.6 164.71-8.6 156.56-23.78 151.97-23.78Z" transform="translate(-0.07000000774860382, 23.78000259399414)"></path></g> <!----> <!----> <!----> <!----> <!----> <!----> <!----></g></g> <!----></g></g><defs v-gra="od"></defs></svg>